<svg version="1.1" viewBox="0.0 0.0 212.45144356955382 100.0" fill="none" stroke="none" stroke-linecap="square" stroke-miterlimit="10" xmlns:xlink="http://www.w3.org/1999/xlink" xmlns="http://www.w3.org/2000/svg"><clipPath id="p.0"><path d="m0 0l212.45145 0l0 100.0l-212.45145 0l0 -100.0z" clip-rule="nonzero"/></clipPath><g clip-path="url(#p.0)"><path fill="#000000" fill-opacity="0.0" d="m0 0l212.45145 0l0 100.0l-212.45145 0z" fill-rule="evenodd"/><path fill="#000000" fill-opacity="0.0" d="m1.4015749 12.060368l597.5748 0l0 74.3307l-597.5748 0z" fill-rule="evenodd"/><path fill="#000000" d="m30.9172 64.58036l-6.328125 0l-1.171875 -27.109371l-5.15625 27.109371l-6.015625 0l6.765625 -32.45312l9.515625 0l1.0 22.734375l11.062498 -22.734375l9.625 0l-6.796875 32.45312l-6.078125 0l6.390625 -26.906246l-12.812498 26.906246zm41.946182 -9.781246l-15.9375 0q-0.015625 0.375 -0.015625 0.578125q0 2.34375 1.328125 3.78125q1.34375 1.4375 3.265625 1.4375q3.171875 0 4.9375 -3.28125l5.6875 0.953125q-1.65625 3.4375 -4.4375 5.15625q-2.78125 1.7031212 -6.234375 1.7031212q-4.734375 0 -7.703125 -2.9843712q-2.953125 -3.0 -2.953125 -7.9375q0 -4.828125 2.671875 -8.59375q3.65625 -5.09375 10.421875 -5.09375q4.3125 0 6.859375 2.671875q2.546875 2.671875 2.546875 7.46875q0 2.296875 -0.4375 4.140625zm-5.359375 -3.875q0.015625 -0.421875 0.015625 -0.640625q0 -2.609375 -1.171875 -3.90625q-1.171875 -1.3125 -3.140625 -1.3125q-1.96875 0 -3.53125 1.484375q-1.5625 1.46875 -2.109375 4.375l9.9375 0zm12.396851 -9.84375l5.96875 0l-0.59375 2.84375q3.5 -3.40625 7.34375 -3.40625q2.65625 0 4.09375 1.109375q1.4375 1.109375 1.84375 3.0625q1.21875 -1.78125 3.5 -2.96875q2.28125 -1.203125 4.734375 -1.203125q2.8125 0 4.375 1.515625q1.578125 1.5 1.578125 3.984375q0 1.203125 -0.625 4.203125l-3.0 14.359371l-6.359375 0l3.015625 -14.359371q0.546875 -2.703125 0.546875 -3.0625q0 -0.96875 -0.59375 -1.53125q-0.578125 -0.5625 -1.75 -0.5625q-2.375 0 -4.234375 2.5q-1.34375 1.78125 -2.296875 6.34375l-2.234375 10.671871l-6.34375 0l2.953125 -14.203121q0.515625 -2.46875 0.515625 -3.1875q0 -0.9375 -0.640625 -1.53125q-0.625 -0.59375 -1.734375 -0.59375q-1.03125 0 -2.140625 0.625q-1.109375 0.609375 -1.9375 1.703125q-0.828125 1.078125 -1.421875 2.78125q-0.265625 0.796875 -0.875 3.609375l-2.25 10.796871l-6.359375 0l4.921875 -23.499996zm36.52272 13.734375q0 -6.53125 3.671875 -10.40625q3.6875 -3.890625 9.687508 -3.890625q5.203125 0 8.125 2.875q2.921875 2.859375 2.921875 7.703125q0 5.71875 -3.65625 9.875q-3.640625 4.156246 -9.781258 4.156246q-3.3125 0 -5.890625 -1.3281212q-2.5625 -1.328125 -3.828125 -3.75q-1.25 -2.4375 -1.25 -5.234375zm18.093758 -4.53125q0 -2.265625 -1.3125 -3.625q-1.3125 -1.359375 -3.390625 -1.359375q-2.0625076 0 -3.6562576 1.28125q-1.59375 1.265625 -2.484375 3.6875q-0.875 2.421875 -0.875 4.46875q0 2.515625 1.359375 4.0q1.375 1.484375 3.453125 1.484375q2.6250076 0 4.3906326 -2.234375q2.515625 -3.171875 2.515625 -7.703125zm13.219482 -9.203125l5.9375 0l-0.953125 4.546875q3.3125 -5.109375 7.1875 -5.109375q1.375 0 2.9375 0.6875l-2.421875 5.203125q-0.875 -0.3125 -1.84375 -0.3125q-1.640625 0 -3.34375 1.25q-1.6875 1.234375 -2.640625 3.3125q-0.9375 2.0625 -1.875 6.546875l-1.546875 7.374996l-6.359375 0l4.921875 -23.499996zm35.968033 13.71875l-15.9375 0q-0.015625 0.375 -0.015625 0.578125q0 2.34375 1.328125 3.78125q1.34375 1.4375 3.265625 1.4375q3.171875 0 4.9375 -3.28125l5.6875 0.953125q-1.65625 3.4375 -4.4375 5.15625q-2.78125 1.7031212 -6.234375 1.7031212q-4.734375 0 -7.703125 -2.9843712q-2.953125 -3.0 -2.953125 -7.9375q0 -4.828125 2.671875 -8.59375q3.65625 -5.09375 10.421875 -5.09375q4.3125 0 6.859375 2.671875q2.546875 2.671875 2.546875 7.46875q0 2.296875 -0.4375 4.140625zm-5.359375 -3.875q0.015625 -0.421875 0.015625 -0.640625q0 -2.609375 -1.171875 -3.90625q-1.171875 -1.3125 -3.140625 -1.3125q-1.96875 0 -3.53125 1.484375q-1.5625 1.46875 -2.109375 4.375l9.9375 0zm18.506226 7.0625l-5.84375 6.593746l-7.796875 0l10.875 -12.046871l-5.984375 -11.453125l6.75 0l3.4375 6.703125l5.953125 -6.703125l7.71875 0l-10.90625 12.1875l5.9375 11.312496l-6.75 0l-3.390625 -6.593746z" fill-rule="nonzero"/></g></svg>