<svg version="1.1" viewBox="0.0 0.0 109.43044619422572 100.0" fill="none" stroke="none" stroke-linecap="square" stroke-miterlimit="10" xmlns:xlink="http://www.w3.org/1999/xlink" xmlns="http://www.w3.org/2000/svg"><clipPath id="p.0"><path d="m0 0l109.43044 0l0 100.0l-109.43044 0l0 -100.0z" clip-rule="nonzero"/></clipPath><g clip-path="url(#p.0)"><path fill="#000000" fill-opacity="0.0" d="m0 0l109.43044 0l0 100.0l-109.43044 0z" fill-rule="evenodd"/><path fill="#000000" fill-opacity="0.0" d="m1.4015749 12.060368l597.5748 0l0 43.622047l-597.5748 0z" fill-rule="evenodd"/><path fill="#000000" d="m19.44845 40.260365l-2.78125 0l-0.515625 -11.968748l-2.28125 11.968748l-2.65625 0l2.984375 -14.312498l4.203125 0l0.4375 10.031248l4.890625 -10.031248l4.234375 0l-2.984375 14.312498l-2.6875 0l2.8125 -11.874998l-5.65625 11.874998zm18.51953 -4.3125l-7.031248 0q-0.015625 0.15625 -0.015625 0.25q0 1.03125 0.59375 1.671875q0.5937481 0.625 1.4374981 0.625q1.390625 0 2.171875 -1.4375l2.515625 0.421875q-0.734375 1.515625 -1.96875 2.28125q-1.21875 0.75 -2.734375 0.75q-2.093748 0 -3.406248 -1.328125q-1.3125 -1.328125 -1.3125 -3.5q0 -2.125 1.1875 -3.796873q1.609375 -2.234375 4.593748 -2.234375q1.90625 0 3.03125 1.171875q1.125 1.171875 1.125 3.296873q0 1.015625 -0.1875 1.828125zm-2.375 -1.71875q0.015625 -0.1875 0.015625 -0.28125q0 -1.15625 -0.515625 -1.71875q-0.515625 -0.5781231 -1.390625 -0.5781231q-0.875 0 -1.5625 0.6562481q-0.6874981 0.640625 -0.9218731 1.921875l4.374998 0zm5.466797 -4.343748l2.640625 0l-0.265625 1.265625q1.546875 -1.5 3.25 -1.5q1.171875 0 1.796875 0.484375q0.640625 0.484375 0.8125 1.34375q0.546875 -0.78125 1.546875 -1.296875q1.0 -0.53125 2.09375 -0.53125q1.234375 0 1.921875 0.671875q0.703125 0.65625 0.703125 1.7499981q0 0.53125 -0.28125 1.84375l-1.328125 6.34375l-2.796875 0l1.328125 -6.34375q0.25 -1.1875 0.25 -1.34375q0 -0.421875 -0.265625 -0.6718731q-0.25 -0.25 -0.78125 -0.25q-1.03125 0 -1.859375 1.0937481q-0.59375 0.796875 -1.015625 2.8125l-0.984375 4.703125l-2.796875 0l1.296875 -6.265625q0.234375 -1.09375 0.234375 -1.40625q0 -0.421875 -0.28125 -0.6718731q-0.28125 -0.265625 -0.765625 -0.265625q-0.46875 0 -0.953125 0.28125q-0.484375 0.2656231 -0.859375 0.7499981q-0.359375 0.46875 -0.625 1.21875q-0.109375 0.359375 -0.375 1.59375l-1.0 4.765625l-2.796875 0l2.15625 -10.374998zm16.126953 6.062498q0 -2.875 1.625 -4.578123q1.625 -1.71875 4.265625 -1.71875q2.296875 0 3.578125 1.265625q1.296875 1.2499981 1.296875 3.390623q0 2.53125 -1.609375 4.375q-1.609375 1.828125 -4.3125 1.828125q-1.46875 0 -2.609375 -0.578125q-1.125 -0.59375 -1.6875 -1.671875q-0.546875 -1.078125 -0.546875 -2.3125zm7.984375 -2.0q0 -1.0 -0.59375 -1.59375q-0.578125 -0.5937481 -1.484375 -0.5937481q-0.90625 0 -1.609375 0.5624981q-0.703125 0.546875 -1.09375 1.625q-0.390625 1.0625 -0.390625 1.96875q0 1.109375 0.59375 1.765625q0.609375 0.65625 1.53125 0.65625q1.15625 0 1.9375 -0.984375q1.109375 -1.40625 1.109375 -3.40625zm5.826172 -4.062498l2.625 0l-0.421875 2.015625q1.453125 -2.25 3.171875 -2.25q0.609375 0 1.296875 0.296875l-1.078125 2.296873q-0.375 -0.140625 -0.8125 -0.140625q-0.71875 0 -1.46875 0.546875q-0.75 0.546875 -1.171875 1.46875q-0.40625 0.90625 -0.828125 2.890625l-0.671875 3.25l-2.8125 0l2.171875 -10.374998zm15.876953 6.062498l-7.03125 0q-0.015625 0.15625 -0.015625 0.25q0 1.03125 0.59375 1.671875q0.59375 0.625 1.4375 0.625q1.390625 0 2.171875 -1.4375l2.515625 0.421875q-0.734375 1.515625 -1.96875 2.28125q-1.21875 0.75 -2.734375 0.75q-2.09375 0 -3.40625 -1.328125q-1.3125 -1.328125 -1.3125 -3.5q0 -2.125 1.1875 -3.796873q1.609375 -2.234375 4.59375 -2.234375q1.90625 0 3.03125 1.171875q1.125 1.171875 1.125 3.296873q0 1.015625 -0.1875 1.828125zm-2.375 -1.71875q0.015625 -0.1875 0.015625 -0.28125q0 -1.15625 -0.515625 -1.71875q-0.515625 -0.5781231 -1.390625 -0.5781231q-0.875 0 -1.5625 0.6562481q-0.6875 0.640625 -0.921875 1.921875l4.375 0zm8.169922 3.125l-2.578125 2.90625l-3.4375 0l4.796875 -5.3125l-2.640625 -5.062498l2.984375 0l1.515625 2.968748l2.625 -2.968748l3.40625 0l-4.8125 5.390623l2.609375 4.984375l-2.96875 0l-1.5 -2.90625z" fill-rule="nonzero"/></g></svg>